<?xml version="1.0" encoding="utf-8"?>
<!-- Generator: Adobe Illustrator 23.0.1, SVG Export Plug-In . SVG Version: 6.00 Build 0)  -->
<svg version="1.1" xmlns="http://www.w3.org/2000/svg" xmlns:xlink="http://www.w3.org/1999/xlink" x="0px" y="0px"
	 viewBox="0 0 580 580" style="enable-background:new 0 0 580 580;" xml:space="preserve">
<style type="text/css">
	.st0{fill:#B8DDFA;}
	.st1{display:none;}
	.st2{display:inline;fill:#04364C;}
	.st3{fill:#04364C;}
</style>
<g id="Layer_2">
	<path class="st0" d="M544,580H36c-19.8,0-36-16.2-36-36V36C0,16.2,16.2,0,36,0H544c19.8,0,36,16.2,36,36V544
		C580,563.8,563.8,580,544,580z"/>
</g>
<g id="Layer_3" class="st1">
	<path class="st2" d="M479,138l-97.9-98c-4.5-4.5-10.6-7-17-7H358v128h128v-6.1C486,148.6,483.5,142.5,479,138z M326,169V33H126
		c-13.3,0-24,10.7-24,24v464c0,13.3,10.7,24,24,24h336c13.3,0,24-10.7,24-24V193H350C336.8,193,326,182.2,326,169z M166,105
		c0-4.4,3.6-8,8-8h80c4.4,0,8,3.6,8,8v16c0,4.4-3.6,8-8,8h-80c-4.4,0-8-3.6-8-8V105z M166,185v-16c0-4.4,3.6-8,8-8h80
		c4.4,0,8,3.6,8,8v16c0,4.4-3.6,8-8,8h-80C169.6,193,166,189.4,166,185z M310,448.9V473c0,4.4-3.6,8-8,8h-16c-4.4,0-8-3.6-8-8v-24.3
		c-11.3-0.6-22.3-4.5-31.4-11.4c-3.9-2.9-4.1-8.8-0.6-12.1l11.8-11.2c2.8-2.6,6.9-2.8,10.1-0.7c3.9,2.4,8.3,3.7,12.8,3.7h28.1
		c6.5,0,11.8-5.9,11.8-13.2c0-6-3.6-11.2-8.8-12.7l-45-13.5c-18.6-5.6-31.6-23.4-31.6-43.4c0-24.5,19.1-44.4,42.7-45.1V265
		c0-4.4,3.6-8,8-8h16c4.4,0,8,3.6,8,8v24.3c11.3,0.6,22.3,4.5,31.4,11.4c3.9,2.9,4.1,8.8,0.6,12.1L330.2,324
		c-2.8,2.6-6.9,2.8-10.1,0.7c-3.9-2.4-8.3-3.7-12.8-3.7h-28.1c-6.5,0-11.8,5.9-11.8,13.2c0,6,3.6,11.2,8.8,12.7l45,13.5
		c18.6,5.6,31.6,23.4,31.6,43.4C352.7,428.3,333.6,448.3,310,448.9L310,448.9z"/>
</g>
<g id="Layer_4" class="st1">
	<path class="st2" d="M94.7,242.1c30.7,0,55.7-25,55.7-55.7s-25-55.7-55.7-55.7S39,155.7,39,186.4S64,242.1,94.7,242.1z
		 M484.7,242.1c30.7,0,55.7-25,55.7-55.7s-25-55.7-55.7-55.7s-55.7,25-55.7,55.7S454,242.1,484.7,242.1z M512.6,270h-55.7
		c-15.3,0-29.2,6.2-39.3,16.2c35.1,19.2,60,54,65.4,95.2h57.5c15.4,0,27.9-12.4,27.9-27.9v-27.9C568.3,295,543.3,270,512.6,270z
		 M289.7,270c53.9,0,97.5-43.6,97.5-97.5S343.6,75,289.7,75s-97.5,43.6-97.5,97.5S235.8,270,289.7,270z M356.6,297.9h-7.2
		c-18.1,8.7-38.2,13.9-59.6,13.9c-21.4,0-41.4-5.2-59.6-13.9h-7.2c-55.4,0-100.3,44.9-100.3,100.3v25.1c0,23.1,18.7,41.8,41.8,41.8
		h250.7c23.1,0,41.8-18.7,41.8-41.8v-25.1C456.9,342.8,411.9,297.9,356.6,297.9z M161.8,286.2c-10.1-10-23.9-16.2-39.3-16.2H66.9
		c-30.7,0-55.7,25-55.7,55.7v27.9c0,15.4,12.4,27.9,27.9,27.9h57.4C101.9,340.2,126.8,305.4,161.8,286.2L161.8,286.2z"/>
</g>
<g id="Layer_5" class="st1">
	<path class="st2" d="M438,91.1c63,45,104,118.6,104,201.9c0,136.8-110.8,247.7-247.5,248C158,541.3,46.2,430,46,293.4
		c-0.1-83.3,40.9-157.1,103.8-202.2c11.7-8.3,28-4.8,35,7.7l15.8,28.1c5.9,10.5,3.1,23.8-6.6,31c-41.5,30.8-68,79.6-68,134.9
		C125.9,385.2,200.5,461,294,461c91.6,0,168.6-74.2,168-169.1c-0.3-51.8-24.7-101.8-68.1-134c-9.7-7.2-12.4-20.5-6.5-30.9l15.8-28.1
		C410.2,86.5,426.4,82.8,438,91.1L438,91.1z M334,301V61c0-13.3-10.7-24-24-24h-32c-13.3,0-24,10.7-24,24v240c0,13.3,10.7,24,24,24
		h32C323.3,325,334,314.3,334,301z"/>
</g>
<g id="Layer_6" class="st1">
	<path class="st2" d="M508,329.6l42.3-186.2c3.1-13.4-7.2-26.2-21-26.2H177.7L169.5,77c-2-10-10.8-17.2-21-17.2H56.7
		c-11.9,0-21.5,9.6-21.5,21.5v14.3c0,11.9,9.6,21.5,21.5,21.5h62.6l62.9,307.5c-15,8.7-25.2,24.9-25.2,43.5
		c0,27.7,22.4,50.1,50.1,50.1s50.1-22.4,50.1-50.1c0-14-5.8-26.7-15.1-35.8h187.7c-9.3,9.1-15.1,21.8-15.1,35.8
		c0,27.7,22.4,50.1,50.1,50.1c27.7,0,50.1-22.4,50.1-50.1c0-19.8-11.5-37-28.3-45.1l4.9-21.7c3.1-13.4-7.2-26.2-21-26.2H230.4
		l-5.9-28.6H487C497,346.3,505.7,339.4,508,329.6z"/>
</g>
<g id="Layer_7" class="st1">
	<path class="st2" d="M70,118V90c0-13.3,10.7-24,24-24h112l9.4-18.7c4-8.2,12.3-13.3,21.4-13.3h114.3c9.1,0,17.4,5.1,21.5,13.3
		L382,66h112c13.3,0,24,10.7,24,24v28c0,6.6-5.4,12-12,12H82C75.4,130,70,124.6,70,118z M486,174v324c0,26.5-21.5,48-48,48H150
		c-26.5,0-48-21.5-48-48V174c0-6.6,5.4-12,12-12h360C480.6,162,486,167.4,486,174z M214,242c0-8.8-7.2-16-16-16s-16,7.2-16,16v224
		c0,8.8,7.2,16,16,16s16-7.2,16-16V242z M310,242c0-8.8-7.2-16-16-16s-16,7.2-16,16v224c0,8.8,7.2,16,16,16s16-7.2,16-16V242z
		 M406,242c0-8.8-7.2-16-16-16s-16,7.2-16,16v224c0,8.8,7.2,16,16,16s16-7.2,16-16V242z"/>
</g>
<g id="Layer_8" class="st1">
	<path class="st2" d="M542,474.7L442.3,375c-4.5-4.5-10.6-7-17-7H409c27.6-35.3,44-79.7,44-128c0-114.9-93.1-208-208-208
		S37,125.1,37,240s93.1,208,208,208c48.3,0,92.7-16.4,128-44v16.3c0,6.4,2.5,12.5,7,17l99.7,99.7c9.4,9.4,24.6,9.4,33.9,0l28.3-28.3
		C551.3,499.3,551.3,484.1,542,474.7z M245,368c-70.7,0-128-57.2-128-128c0-70.7,57.2-128,128-128c70.7,0,128,57.2,128,128
		C373,310.7,315.8,368,245,368z"/>
</g>
<g id="Layer_9_copy">
	<path class="st3" d="M393.6,370.6l29-29c4.5-4.5,12.4-1.4,12.4,5.2v131.7c0,24-19.5,43.5-43.5,43.5H72.5c-24,0-43.5-19.5-43.5-43.5
		V159.6c0-24,19.5-43.5,43.5-43.5h247.8c6.4,0,9.7,7.8,5.2,12.4l-29,29c-1.4,1.4-3.2,2.1-5.2,2.1H72.5v318.9h318.9V375.7
		C391.5,373.8,392.2,371.9,393.6,370.6z M428.5,90C361.9,90,308,143.9,308,210.5S361.9,331,428.5,331S549,277.1,549,210.5
		S495.1,90,428.5,90z M498.5,224.1c0,3.2-2.6,5.8-5.8,5.8h-44.7v44.7c0,3.2-2.6,5.8-5.8,5.8h-27.2c-3.2,0-5.8-2.6-5.8-5.8v-44.7
		h-44.7c-3.2,0-5.8-2.6-5.8-5.8v-27.2c0-3.2,2.6-5.8,5.8-5.8h44.7v-44.7c0-3.2,2.6-5.8,5.8-5.8h27.2c3.2,0,5.8,2.6,5.8,5.8v44.7
		h44.7c3.2,0,5.8,2.6,5.8,5.8V224.1z"/>
</g>
<g id="Layer_9" class="st1">
	<path class="st2" d="M393.6,370.6l29-29c4.5-4.5,12.4-1.4,12.4,5.2v131.7c0,24-19.5,43.5-43.5,43.5H72.5c-24,0-43.5-19.5-43.5-43.5
		V159.6c0-24,19.5-43.5,43.5-43.5h247.8c6.4,0,9.7,7.8,5.2,12.4l-29,29c-1.4,1.4-3.2,2.1-5.2,2.1H72.5v318.9h318.9V375.7
		C391.5,373.8,392.2,371.9,393.6,370.6z M535.5,187.7L297.5,425.7l-81.9,9.1c-23.7,2.6-43.9-17.4-41.3-41.3l9.1-81.9L421.3,73.6
		c20.7-20.7,54.3-20.7,74.9,0l39.1,39.1C556.1,133.5,556.1,167.1,535.5,187.7L535.5,187.7z M445.9,215.7l-52.6-52.6L224.9,331.5
		l-6.6,59.2l59.2-6.6L445.9,215.7z M504.7,143.5l-39.1-39.1c-3.7-3.7-9.8-3.7-13.4,0l-28,28l52.6,52.6l28-28
		C508.4,153.2,508.4,147.2,504.7,143.5z"/>
</g>
<g id="Layer_1" class="st1">
	<path class="st2" d="M534,210h-59.9l-16.6-41.6c-17.1-42.8-57.9-70.4-104-70.4h-127c-46.1,0-86.9,27.6-104,70.4L105.9,210H46
		c-7.8,0-13.5,7.3-11.6,14.9l6,24c1.3,5.3,6.1,9.1,11.6,9.1h20.1C58.7,269.7,50,286.8,50,306v48c0,16.1,6.2,30.7,16,41.9V450
		c0,17.7,14.3,32,32,32h32c17.7,0,32-14.3,32-32v-32h256v32c0,17.7,14.3,32,32,32h32c17.7,0,32-14.3,32-32v-54.1
		c9.8-11.2,16-25.8,16-41.9v-48c0-19.2-8.7-36.3-22.1-48H528c5.5,0,10.3-3.8,11.6-9.1l6-24C547.5,217.3,541.8,210,534,210L534,210z
		 M181.9,192.2c7.3-18.2,24.9-30.2,44.6-30.2h127c19.6,0,37.3,11.9,44.6,30.2L418,242H162L181.9,192.2z M130,353.8
		c-19.2,0-32-12.8-32-31.9s12.8-31.9,32-31.9s48,28.7,48,47.9S149.2,353.8,130,353.8L130,353.8z M450,353.8c-19.2,0-48,3.2-48-16
		s28.8-47.8,48-47.8s32,12.8,32,31.9S469.2,353.8,450,353.8z"/>
</g>
</svg>
