<?xml version="1.0" encoding="utf-8"?>
<!-- Generator: Adobe Illustrator 23.0.1, SVG Export Plug-In . SVG Version: 6.00 Build 0)  -->
<svg version="1.1" id="Layer_1" xmlns="http://www.w3.org/2000/svg" xmlns:xlink="http://www.w3.org/1999/xlink" x="0px" y="0px"
	 viewBox="0 0 580 580" style="enable-background:new 0 0 580 580;" xml:space="preserve">
<style type="text/css">
	.st0{fill:#B8DDFA;}
	.st1{fill:#04364C;}
</style>
<path class="st0" d="M544,580H36c-19.8,0-36-16.2-36-36V36C0,16.2,16.2,0,36,0H544c19.8,0,36,16.2,36,36V544
	C580,563.8,563.8,580,544,580z"/>
<path class="st1" d="M534,210h-59.9l-16.6-41.6c-17.1-42.8-57.9-70.4-104-70.4h-127c-46.1,0-86.9,27.6-104,70.4L105.9,210H46
	c-7.8,0-13.5,7.3-11.6,14.9l6,24c1.3,5.3,6.1,9.1,11.6,9.1h20.1C58.7,269.7,50,286.8,50,306v48c0,16.1,6.2,30.7,16,41.9V450
	c0,17.7,14.3,32,32,32h32c17.7,0,32-14.3,32-32v-32h256v32c0,17.7,14.3,32,32,32h32c17.7,0,32-14.3,32-32v-54.1
	c9.8-11.2,16-25.8,16-41.9v-48c0-19.2-8.7-36.3-22.1-48H528c5.5,0,10.3-3.8,11.6-9.1l6-24C547.5,217.3,541.8,210,534,210L534,210z
	 M181.9,192.2c7.3-18.2,24.9-30.2,44.6-30.2h127c19.6,0,37.3,11.9,44.6,30.2L418,242H162L181.9,192.2z M130,353.8
	c-19.2,0-32-12.8-32-31.9s12.8-31.9,32-31.9s48,28.7,48,47.9S149.2,353.8,130,353.8L130,353.8z M450,353.8c-19.2,0-48,3.2-48-16
	s28.8-47.8,48-47.8s32,12.8,32,31.9S469.2,353.8,450,353.8z"/>
</svg>
